<svg width="491" height="65" viewBox="0 0 491 65" fill="none" xmlns="http://www.w3.org/2000/svg">
<rect width="491" height="65" fill="#1E1E1E"/>
<path d="M24.608 47.984C24.48 47.984 24.352 47.984 24.224 47.984C24.096 47.984 23.968 47.9627 23.84 47.92C22.5173 46.64 21.0667 44.8907 19.488 42.672C17.9093 40.4533 16.3093 38.0213 14.688 35.376C13.0667 32.7307 11.5093 30.1067 10.016 27.504C9.46133 28.272 8.90667 29.0613 8.352 29.872C7.79733 30.64 7.24267 31.4507 6.688 32.304C6.432 35.1627 6.15467 37.8507 5.856 40.368C5.55733 42.8853 5.23733 45.0187 4.896 46.768C4.64 47.0667 4.17067 47.3013 3.488 47.472C2.80533 47.6853 2.29333 47.792 1.952 47.792C1.61067 47.792 1.44 47.7067 1.44 47.536C1.90933 44.5067 2.22933 41.648 2.4 38.96C2.57067 36.2293 2.656 33.5627 2.656 30.96C2.656 28.1013 2.592 25.0933 2.464 21.936C2.336 18.7787 2.12267 15.6427 1.824 12.528C1.568 9.41333 1.22667 6.512 0.8 3.824L2.464 2.672L8.224 5.616C8.13867 8.34666 8.01067 11.5253 7.84 15.152C7.66933 18.7787 7.43467 22.4693 7.136 26.224C9.14133 22.5973 11.1893 18.9707 13.28 15.344C15.4133 11.6747 17.6533 8.176 20 4.848L25.568 3.568L27.424 5.04C24.8213 8.28267 22.3893 11.312 20.128 14.128C17.9093 16.9013 15.7973 19.6533 13.792 22.384C14.304 24.0053 15.0507 25.9467 16.032 28.208C17.056 30.4267 18.1867 32.7307 19.424 35.12C20.704 37.5093 21.9627 39.7707 23.2 41.904C24.48 44.0373 25.6533 45.808 26.72 47.216C26.72 47.4293 26.4853 47.6 26.016 47.728C25.5893 47.8987 25.12 47.984 24.608 47.984ZM53.5495 47.792C53.2508 47.792 52.8455 47.7067 52.3335 47.536C51.8215 47.3653 51.4375 47.152 51.1815 46.896C50.4135 45.1467 49.7522 43.0133 49.1975 40.496C48.6855 37.936 48.2588 35.4187 47.9175 32.944C46.7228 35.76 45.3575 38.256 43.8215 40.432C42.2855 42.608 40.7068 44.3147 39.0855 45.552C37.5068 46.7893 35.9708 47.408 34.4775 47.408C32.5575 47.408 31.1495 46.7253 30.2535 45.36C29.4002 43.9947 28.9735 42.2667 28.9735 40.176C28.9735 37.2747 29.5282 34.608 30.6375 32.176C31.7468 29.7013 33.2188 27.4827 35.0535 25.52C36.9308 23.5147 38.9575 21.7867 41.1335 20.336C43.3522 18.8427 45.5495 17.6267 47.7255 16.688L52.9095 14.448L54.4455 15.344C53.8055 17.2213 53.2935 19.4827 52.9095 22.128C52.5255 24.7733 52.3335 27.2907 52.3335 29.68C52.3335 30.832 52.3762 32.2613 52.4615 33.968C52.5895 35.6747 52.7388 37.4453 52.9095 39.28C53.0802 41.072 53.2508 42.736 53.4215 44.272C53.6348 45.7653 53.8268 46.8747 53.9975 47.6C53.9975 47.728 53.8482 47.792 53.5495 47.792ZM38.1895 39.728C39.4695 39.728 40.9628 38.6827 42.6695 36.592C44.3762 34.5013 45.9122 31.344 47.2775 27.12C47.2348 26.6507 47.2135 26.224 47.2135 25.84C47.2135 25.4133 47.2135 25.0293 47.2135 24.688C47.2135 23.6213 47.2135 22.704 47.2135 21.936C47.2135 21.168 47.2348 20.4853 47.2775 19.888C45.3148 20.9973 43.3948 22.2773 41.5175 23.728C39.6402 25.136 38.0828 26.7787 36.8455 28.656C35.6082 30.4907 34.9895 32.6027 34.9895 34.992C34.9895 36.3573 35.2028 37.488 35.6295 38.384C36.0988 39.28 36.9522 39.728 38.1895 39.728ZM69.084 47.792C68.7853 47.792 68.38 47.7067 67.868 47.536C67.356 47.408 66.9507 47.1947 66.652 46.896C65.9693 45.3173 65.2867 43.4827 64.604 41.392C63.9213 39.2587 63.3027 36.9973 62.748 34.608C62.1933 32.2187 61.7453 29.808 61.404 27.376C61.0627 24.944 60.892 22.6187 60.892 20.4C60.892 19.632 60.9133 18.8853 60.956 18.16C60.9987 17.4347 61.084 16.7307 61.212 16.048L62.812 14.96L67.932 17.52C67.164 20.72 66.78 23.9627 66.78 27.248C66.78 30.1067 66.9507 32.9013 67.292 35.632C67.6333 38.3627 68.0173 40.9227 68.444 43.312C69.084 41.0507 69.916 38.704 70.94 36.272C71.964 33.7973 73.0733 31.344 74.268 28.912C75.5053 26.4373 76.7853 24.1333 78.108 22C79.4307 19.824 80.6893 17.9253 81.884 16.304C82.2253 16.048 82.6947 15.8347 83.292 15.664C83.8893 15.4933 84.3373 15.408 84.636 15.408C84.764 15.408 84.828 15.4933 84.828 15.664C84.828 15.7067 84.8067 15.7707 84.764 15.856C84.764 15.8987 84.764 15.9627 84.764 16.048C83.2707 18.6933 81.82 21.68 80.412 25.008C79.0467 28.2933 77.8307 31.7067 76.764 35.248C75.74 38.7467 75.0147 42.1813 74.588 45.552L69.084 47.792ZM92.012 11.12C90.9453 11.12 90.1347 10.736 89.58 9.968C89.0253 9.15733 88.748 8.34667 88.748 7.536C88.748 6.29866 89.2387 5.25333 90.22 4.4C91.2013 3.54667 92.6307 2.992 94.508 2.736C95.2333 3.29066 95.724 3.952 95.98 4.72C96.2787 5.44533 96.428 6.14933 96.428 6.832C96.428 8.15466 95.9587 9.2 95.02 9.968C94.0813 10.736 93.0787 11.12 92.012 11.12ZM88.492 46.832C88.1933 46.832 88.044 46.768 88.044 46.64C88.6413 43.184 89.0467 40.048 89.26 37.232C89.516 34.416 89.644 31.8987 89.644 29.68C89.644 26.1813 89.452 23.3227 89.068 21.104C88.684 18.8853 88.3213 17.1573 87.98 15.92L89.516 14.96L94.7 17.456C94.7427 18.1387 94.764 18.8427 94.764 19.568C94.8067 20.2507 94.828 20.9547 94.828 21.68C94.828 25.6907 94.4653 29.7227 93.74 33.776C93.0573 37.7867 92.1187 41.84 90.924 45.936C90.668 46.192 90.2627 46.4053 89.708 46.576C89.196 46.7467 88.7907 46.832 88.492 46.832ZM121.545 47.408C121.246 47.408 121.097 47.344 121.097 47.216C121.395 44.7413 121.63 42.3307 121.801 39.984C121.971 37.6373 122.057 35.4827 122.057 33.52C122.057 30.5333 121.779 28.1227 121.225 26.288C120.67 24.4107 119.689 23.472 118.281 23.472C116.489 23.472 114.675 24.9867 112.841 28.016C111.006 31.0453 109.15 35.4827 107.273 41.328L105.801 45.936C105.545 46.192 105.139 46.4053 104.585 46.576C104.073 46.7467 103.667 46.832 103.369 46.832C103.07 46.832 102.921 46.7467 102.921 46.576C103.774 42.096 104.286 38.1707 104.457 34.8C104.627 31.4293 104.585 28.528 104.329 26.096C104.073 23.6213 103.731 21.5733 103.305 19.952C102.921 18.288 102.601 16.944 102.345 15.92L103.881 14.96L109.065 17.456C109.278 20.8693 109.342 24.24 109.257 27.568L109.705 27.632C111.454 24.0907 113.395 21.232 115.529 19.056C117.662 16.88 119.71 15.792 121.673 15.792C123.465 15.792 124.766 16.4747 125.577 17.84C126.387 19.1627 126.793 20.8907 126.793 23.024C126.793 26.7787 126.537 30.6187 126.025 34.544C125.555 38.4267 125.001 42.416 124.361 46.512C124.105 46.8107 123.657 47.024 123.017 47.152C122.377 47.3227 121.886 47.408 121.545 47.408ZM135.052 47.92C134.71 47.92 134.54 47.8347 134.54 47.664C135.18 44.5067 135.606 41.6053 135.82 38.96C136.076 36.3147 136.204 33.9253 136.204 31.792C136.204 27.7387 135.948 24.432 135.436 21.872C134.966 19.312 134.561 17.3707 134.22 16.048L135.756 14.96L140.94 17.712C141.068 19.0347 141.174 20.3787 141.26 21.744C141.345 23.0667 141.388 24.432 141.388 25.84V27.056H141.9C144.161 20.656 147.34 16.6667 151.436 15.088L152.78 16.304L151.244 23.664C150.945 23.5787 150.625 23.5147 150.284 23.472C149.985 23.4293 149.708 23.408 149.452 23.408C147.702 23.408 146.316 24.0693 145.292 25.392C144.31 26.672 143.414 28.5707 142.604 31.088C141.793 33.5627 140.79 36.6133 139.595 40.24L137.42 46.96C137.164 47.2587 136.78 47.4933 136.268 47.664C135.756 47.8347 135.35 47.92 135.052 47.92ZM177.362 47.792C177.063 47.792 176.658 47.7067 176.146 47.536C175.634 47.3653 175.25 47.152 174.994 46.896C174.226 45.1467 173.565 43.0133 173.01 40.496C172.498 37.936 172.071 35.4187 171.73 32.944C170.535 35.76 169.17 38.256 167.634 40.432C166.098 42.608 164.519 44.3147 162.898 45.552C161.319 46.7893 159.783 47.408 158.29 47.408C156.37 47.408 154.962 46.7253 154.066 45.36C153.213 43.9947 152.786 42.2667 152.786 40.176C152.786 37.2747 153.341 34.608 154.45 32.176C155.559 29.7013 157.031 27.4827 158.866 25.52C160.743 23.5147 162.77 21.7867 164.946 20.336C167.165 18.8427 169.362 17.6267 171.538 16.688L176.722 14.448L178.258 15.344C177.618 17.2213 177.106 19.4827 176.722 22.128C176.338 24.7733 176.146 27.2907 176.146 29.68C176.146 30.832 176.189 32.2613 176.274 33.968C176.402 35.6747 176.551 37.4453 176.722 39.28C176.893 41.072 177.063 42.736 177.234 44.272C177.447 45.7653 177.639 46.8747 177.81 47.6C177.81 47.728 177.661 47.792 177.362 47.792ZM162.002 39.728C163.282 39.728 164.775 38.6827 166.482 36.592C168.189 34.5013 169.725 31.344 171.09 27.12C171.047 26.6507 171.026 26.224 171.026 25.84C171.026 25.4133 171.026 25.0293 171.026 24.688C171.026 23.6213 171.026 22.704 171.026 21.936C171.026 21.168 171.047 20.4853 171.09 19.888C169.127 20.9973 167.207 22.2773 165.33 23.728C163.453 25.136 161.895 26.7787 160.658 28.656C159.421 30.4907 158.802 32.6027 158.802 34.992C158.802 36.3573 159.015 37.488 159.442 38.384C159.911 39.28 160.765 39.728 162.002 39.728ZM190.593 11.12C189.526 11.12 188.715 10.736 188.161 9.968C187.606 9.15733 187.329 8.34667 187.329 7.536C187.329 6.29866 187.819 5.25333 188.801 4.4C189.782 3.54667 191.211 2.992 193.089 2.736C193.814 3.29066 194.305 3.952 194.561 4.72C194.859 5.44533 195.009 6.14933 195.009 6.832C195.009 8.15466 194.539 9.2 193.601 9.968C192.662 10.736 191.659 11.12 190.593 11.12ZM176.128 64.176L174.528 63.024L176 56.816C176.854 56.944 177.6 57.008 178.24 57.008C180.416 57.008 182.209 56.0693 183.617 54.192C185.067 52.3147 186.07 49.8187 186.625 46.704C187.179 43.5467 187.542 40.624 187.713 37.936C187.926 35.2053 188.033 32.688 188.033 30.384C188.033 27.312 187.883 24.5387 187.585 22.064C187.286 19.5467 186.987 17.5413 186.689 16.048L188.289 14.96L193.409 17.712C193.451 18.352 193.473 18.9493 193.473 19.504C193.473 20.0587 193.473 20.6773 193.473 21.36C193.473 25.1147 193.153 29.104 192.513 33.328C191.915 37.5093 191.169 41.584 190.273 45.552C189.59 48.4533 188.63 51.184 187.393 53.744C186.198 56.304 184.662 58.48 182.785 60.272C180.95 62.1067 178.731 63.408 176.128 64.176ZM240.623 48.24L234.543 45.616C233.86 39.5147 232.836 33.6053 231.471 27.888C230.105 22.1707 228.633 16.7947 227.055 11.76C226.884 14.704 226.649 17.8613 226.351 21.232C226.052 24.56 225.689 27.8453 225.263 31.088C224.879 34.3307 224.473 37.3173 224.047 40.048C223.62 42.736 223.193 44.912 222.767 46.576C222.383 46.96 221.849 47.2587 221.167 47.472C220.484 47.6853 219.972 47.792 219.631 47.792C219.332 47.792 219.14 47.7707 219.055 47.728C218.969 47.6853 218.927 47.6213 218.927 47.536C218.884 47.536 219.012 46.768 219.311 45.232C219.652 43.6533 219.993 41.3493 220.335 38.32C220.676 35.248 220.847 31.472 220.847 26.992C220.847 24.0907 220.761 21.3387 220.591 18.736C220.42 16.0907 220.207 13.7653 219.951 11.76C219.695 9.75467 219.481 8.176 219.311 7.024C219.14 5.872 219.055 5.296 219.055 5.296L225.647 2.672L227.311 3.696C229.487 8.60267 231.492 13.616 233.327 18.736C235.161 23.856 236.868 29.0613 238.447 34.352C240.281 29.4453 242.351 24.56 244.655 19.696C246.959 14.7893 249.54 9.52 252.399 3.888C252.399 3.84533 252.399 3.824 252.399 3.824C252.441 3.78133 252.463 3.73867 252.463 3.696L254.127 2.672L259.567 5.296C258.415 8.24 257.625 11.696 257.199 15.664C256.815 19.632 256.623 23.92 256.623 28.528C256.623 32.4533 256.708 36.1653 256.879 39.664C257.092 43.12 257.327 45.8933 257.583 47.984C257.583 48.112 257.412 48.176 257.071 48.176C256.772 48.176 256.345 48.0907 255.791 47.92C255.236 47.7493 254.831 47.5147 254.575 47.216C253.593 42.1813 252.783 37.2747 252.143 32.496C251.545 27.7173 251.247 23.0027 251.247 18.352C251.247 16.2613 251.311 14.192 251.439 12.144C249.689 16.1973 248.175 19.9947 246.895 23.536C245.657 27.0347 244.569 30.4693 243.631 33.84C242.735 37.2107 241.945 40.7093 241.263 44.336L242.031 47.216L240.623 48.24ZM288.862 47.792C288.563 47.792 288.158 47.7067 287.646 47.536C287.134 47.3653 286.75 47.152 286.494 46.896C285.726 45.1467 285.065 43.0133 284.51 40.496C283.998 37.936 283.571 35.4187 283.23 32.944C282.035 35.76 280.67 38.256 279.134 40.432C277.598 42.608 276.019 44.3147 274.398 45.552C272.819 46.7893 271.283 47.408 269.79 47.408C267.87 47.408 266.462 46.7253 265.566 45.36C264.713 43.9947 264.286 42.2667 264.286 40.176C264.286 37.2747 264.841 34.608 265.95 32.176C267.059 29.7013 268.531 27.4827 270.366 25.52C272.243 23.5147 274.27 21.7867 276.446 20.336C278.665 18.8427 280.862 17.6267 283.038 16.688L288.222 14.448L289.758 15.344C289.118 17.2213 288.606 19.4827 288.222 22.128C287.838 24.7733 287.646 27.2907 287.646 29.68C287.646 30.832 287.689 32.2613 287.774 33.968C287.902 35.6747 288.051 37.4453 288.222 39.28C288.393 41.072 288.563 42.736 288.734 44.272C288.947 45.7653 289.139 46.8747 289.31 47.6C289.31 47.728 289.161 47.792 288.862 47.792ZM273.502 39.728C274.782 39.728 276.275 38.6827 277.982 36.592C279.689 34.5013 281.225 31.344 282.59 27.12C282.547 26.6507 282.526 26.224 282.526 25.84C282.526 25.4133 282.526 25.0293 282.526 24.688C282.526 23.6213 282.526 22.704 282.526 21.936C282.526 21.168 282.547 20.4853 282.59 19.888C280.627 20.9973 278.707 22.2773 276.83 23.728C274.953 25.136 273.395 26.7787 272.158 28.656C270.921 30.4907 270.302 32.6027 270.302 34.992C270.302 36.3573 270.515 37.488 270.942 38.384C271.411 39.28 272.265 39.728 273.502 39.728ZM297.677 47.92C297.335 47.92 297.165 47.8347 297.165 47.664C297.805 44.5067 298.231 41.6053 298.445 38.96C298.701 36.3147 298.829 33.9253 298.829 31.792C298.829 27.7387 298.573 24.432 298.061 21.872C297.591 19.312 297.186 17.3707 296.845 16.048L298.381 14.96L303.565 17.712C303.693 19.0347 303.799 20.3787 303.885 21.744C303.97 23.0667 304.013 24.432 304.013 25.84V27.056H304.525C306.786 20.656 309.965 16.6667 314.061 15.088L315.405 16.304L313.869 23.664C313.57 23.5787 313.25 23.5147 312.909 23.472C312.61 23.4293 312.333 23.408 312.077 23.408C310.327 23.408 308.941 24.0693 307.917 25.392C306.935 26.672 306.039 28.5707 305.229 31.088C304.418 33.5627 303.415 36.6133 302.22 40.24L300.045 46.96C299.789 47.2587 299.405 47.4933 298.893 47.664C298.381 47.8347 297.975 47.92 297.677 47.92ZM322.387 11.12C321.32 11.12 320.51 10.736 319.955 9.968C319.4 9.15733 319.123 8.34667 319.123 7.536C319.123 6.29866 319.614 5.25333 320.595 4.4C321.576 3.54667 323.006 2.992 324.883 2.736C325.608 3.29066 326.099 3.952 326.355 4.72C326.654 5.44533 326.803 6.14933 326.803 6.832C326.803 8.15466 326.334 9.2 325.395 9.968C324.456 10.736 323.454 11.12 322.387 11.12ZM318.867 46.832C318.568 46.832 318.419 46.768 318.419 46.64C319.016 43.184 319.422 40.048 319.635 37.232C319.891 34.416 320.019 31.8987 320.019 29.68C320.019 26.1813 319.827 23.3227 319.443 21.104C319.059 18.8853 318.696 17.1573 318.355 15.92L319.891 14.96L325.075 17.456C325.118 18.1387 325.139 18.8427 325.139 19.568C325.182 20.2507 325.203 20.9547 325.203 21.68C325.203 25.6907 324.84 29.7227 324.115 33.776C323.432 37.7867 322.494 41.84 321.299 45.936C321.043 46.192 320.638 46.4053 320.083 46.576C319.571 46.7467 319.166 46.832 318.867 46.832ZM351.088 47.408C350.874 47.408 350.768 47.344 350.768 47.216C350.981 44.7413 351.173 42.3307 351.344 39.984C351.514 37.6373 351.6 35.4827 351.6 33.52C351.6 30.5333 351.344 28.1227 350.832 26.288C350.32 24.4107 349.381 23.472 348.016 23.472C346.565 23.472 344.965 24.5813 343.216 26.8C341.509 28.976 340.037 32.2827 338.8 36.72L336.176 45.936C335.92 46.192 335.514 46.4053 334.96 46.576C334.448 46.7467 334.042 46.832 333.744 46.832C333.445 46.832 333.296 46.7467 333.296 46.576C334.149 42.096 334.661 38.1707 334.832 34.8C335.002 31.4293 334.96 28.528 334.704 26.096C334.448 23.6213 334.106 21.5733 333.68 19.952C333.296 18.288 332.976 16.944 332.72 15.92L334.256 14.96L339.44 17.456C339.568 20.6987 339.632 23.9413 339.632 27.184L340.016 27.248C341.637 23.792 343.45 21.0187 345.456 18.928C347.461 16.8373 349.381 15.792 351.216 15.792C353.008 15.792 354.309 16.4747 355.12 17.84C355.93 19.1627 356.336 20.8907 356.336 23.024C356.336 23.7067 356.314 24.3893 356.272 25.072C356.272 25.712 356.25 26.3733 356.208 27.056L356.592 27.12C358.213 23.7067 360.069 20.976 362.16 18.928C364.25 16.8373 366.213 15.792 368.048 15.792C369.84 15.792 371.141 16.4747 371.952 17.84C372.762 19.1627 373.168 20.8907 373.168 23.024C373.168 26.7787 372.933 30.6187 372.464 34.544C371.994 38.4267 371.418 42.416 370.736 46.512C370.48 46.8107 370.032 47.024 369.392 47.152C368.752 47.3227 368.282 47.408 367.984 47.408C367.728 47.408 367.6 47.344 367.6 47.216C367.813 44.7413 368.005 42.3307 368.176 39.984C368.346 37.6373 368.432 35.4827 368.432 33.52C368.432 30.5333 368.176 28.1227 367.664 26.288C367.152 24.4107 366.213 23.472 364.847 23.472C363.738 23.472 362.458 24.112 361.007 25.392C359.6 26.672 358.298 28.6347 357.104 31.28C355.909 33.9253 355.056 37.2747 354.544 41.328L353.904 46.512C353.648 46.8107 353.2 47.024 352.56 47.152C351.92 47.3227 351.429 47.408 351.088 47.408ZM405.363 47.792C405.064 47.792 404.637 47.7067 404.083 47.536C403.571 47.3653 403.187 47.152 402.931 46.896C402.205 45.1467 401.565 43.0133 401.011 40.496C400.456 37.936 400.008 35.44 399.667 33.008C398.515 35.824 397.171 38.32 395.635 40.496C394.099 42.6293 392.52 44.3147 390.899 45.552C389.277 46.7893 387.72 47.408 386.227 47.408C384.392 47.408 383.069 46.7253 382.259 45.36C381.491 43.9947 381.107 42.2667 381.107 40.176C381.107 36.3787 381.384 32.56 381.939 28.72C382.493 24.8373 383.027 20.8267 383.539 16.688C383.795 16.432 384.243 16.2187 384.883 16.048C385.523 15.8773 385.992 15.792 386.291 15.792C386.589 15.792 386.739 15.8773 386.739 16.048C386.483 18.48 386.269 20.8693 386.099 23.216C385.928 25.5627 385.843 27.7173 385.843 29.68C385.843 32.6667 386.099 35.0987 386.611 36.976C387.165 38.8107 388.168 39.728 389.619 39.728C391.112 39.728 392.712 38.6827 394.419 36.592C396.168 34.5013 397.704 31.3867 399.027 27.248C398.984 26.736 398.963 26.2667 398.963 25.84C398.963 25.4133 398.963 25.0293 398.963 24.688C398.963 22.5973 399.005 21.0187 399.091 19.952C399.219 18.8427 399.368 17.7547 399.539 16.688L404.659 14.448L406.259 15.344C405.619 17.2213 405.107 19.4827 404.723 22.128C404.339 24.7733 404.147 27.2907 404.147 29.68C404.147 30.832 404.189 32.2613 404.275 33.968C404.403 35.6747 404.531 37.4453 404.659 39.28C404.829 41.072 405.021 42.736 405.235 44.272C405.448 45.7653 405.64 46.8747 405.811 47.6C405.811 47.728 405.661 47.792 405.363 47.792ZM415.97 47.408C415.671 47.408 415.522 47.344 415.522 47.216C416.034 43.9307 416.397 40.88 416.61 38.064C416.823 35.2053 416.93 32.368 416.93 29.552C416.93 28.656 416.909 27.5253 416.866 26.16C416.866 24.7947 416.823 23.344 416.738 21.808C415.842 21.7227 414.925 21.616 413.986 21.488C413.09 21.3173 412.237 21.1253 411.426 20.912C411.255 20.8267 411.063 20.5707 410.85 20.144C410.679 19.7173 410.53 19.2907 410.402 18.864C410.274 18.3947 410.189 18.0533 410.146 17.84C410.146 17.6267 410.189 17.52 410.274 17.52C410.359 17.4773 410.402 17.456 410.402 17.456C411.341 17.6267 412.343 17.7547 413.41 17.84C414.519 17.9253 415.565 17.968 416.546 17.968C416.461 16.176 416.354 14.448 416.226 12.784C416.141 11.12 416.013 9.69066 415.842 8.496L417.378 7.408L422.562 10.16L422.178 17.648C423.757 17.4347 425.143 17.1573 426.338 16.816C427.533 16.432 428.599 16.0693 429.538 15.728L430.178 16.752L428.258 21.232C426.167 21.6587 424.034 21.8933 421.858 21.936C421.645 24.88 421.389 27.888 421.09 30.96C420.791 33.9893 420.429 36.848 420.002 39.536C419.618 42.224 419.17 44.5493 418.658 46.512C418.402 46.8107 417.954 47.024 417.314 47.152C416.717 47.3227 416.269 47.408 415.97 47.408ZM434.241 47.984C433.857 47.984 433.665 47.8773 433.665 47.664C434.731 42.7573 435.478 38.128 435.905 33.776C436.331 29.3813 436.545 25.3707 436.545 21.744C436.545 18.928 436.417 16.2187 436.161 13.616C435.905 11.0133 435.585 8.66666 435.201 6.576C434.817 4.44267 434.433 2.736 434.049 1.456L435.649 0.431999L440.769 2.864C441.153 5.808 441.345 8.96533 441.345 12.336C441.345 14.6827 441.238 17.0933 441.025 19.568C440.854 22 440.598 24.4107 440.257 26.8H440.833C442.582 23.5147 444.481 20.8693 446.529 18.864C448.577 16.816 450.539 15.792 452.417 15.792C454.251 15.792 455.553 16.4747 456.321 17.84C457.131 19.1627 457.537 20.8907 457.537 23.024C457.537 26.7787 457.259 30.6187 456.705 34.544C456.15 38.4267 455.638 42.416 455.169 46.512C454.87 46.8107 454.401 47.024 453.761 47.152C453.121 47.3227 452.651 47.408 452.353 47.408C452.054 47.408 451.905 47.344 451.905 47.216C452.161 44.7413 452.374 42.3307 452.545 39.984C452.715 37.6373 452.801 35.4827 452.801 33.52C452.801 30.5333 452.523 28.1227 451.969 26.288C451.457 24.4107 450.475 23.472 449.025 23.472C447.275 23.472 445.355 24.9653 443.265 27.952C441.217 30.896 439.51 35.3547 438.145 41.328L436.865 46.896C436.566 47.1947 436.118 47.4507 435.521 47.664C434.966 47.8773 434.539 47.984 434.241 47.984ZM489.738 47.792C489.439 47.792 489.012 47.7067 488.458 47.536C487.946 47.3653 487.562 47.152 487.306 46.896C486.58 45.1467 485.94 43.0133 485.386 40.496C484.831 37.936 484.383 35.44 484.042 33.008C482.89 35.824 481.546 38.32 480.01 40.496C478.474 42.6293 476.895 44.3147 475.274 45.552C473.652 46.7893 472.095 47.408 470.602 47.408C468.767 47.408 467.444 46.7253 466.634 45.36C465.866 43.9947 465.482 42.2667 465.482 40.176C465.482 36.3787 465.759 32.56 466.314 28.72C466.868 24.8373 467.402 20.8267 467.914 16.688C468.17 16.432 468.618 16.2187 469.258 16.048C469.898 15.8773 470.367 15.792 470.666 15.792C470.964 15.792 471.114 15.8773 471.114 16.048C470.858 18.48 470.644 20.8693 470.474 23.216C470.303 25.5627 470.218 27.7173 470.218 29.68C470.218 32.6667 470.474 35.0987 470.986 36.976C471.54 38.8107 472.543 39.728 473.994 39.728C475.487 39.728 477.087 38.6827 478.794 36.592C480.543 34.5013 482.079 31.3867 483.402 27.248C483.359 26.736 483.338 26.2667 483.338 25.84C483.338 25.4133 483.338 25.0293 483.338 24.688C483.338 22.5973 483.38 21.0187 483.466 19.952C483.594 18.8427 483.743 17.7547 483.914 16.688L489.034 14.448L490.634 15.344C489.994 17.2213 489.482 19.4827 489.098 22.128C488.714 24.7733 488.522 27.2907 488.522 29.68C488.522 30.832 488.564 32.2613 488.65 33.968C488.778 35.6747 488.906 37.4453 489.034 39.28C489.204 41.072 489.396 42.736 489.61 44.272C489.823 45.7653 490.015 46.8747 490.186 47.6C490.186 47.728 490.036 47.792 489.738 47.792Z" fill="white"/>
</svg>
